<svg width="24" height="24" viewBox="0 0 24 24" fill="none" xmlns="http://www.w3.org/2000/svg">
<g clip-path="url(#clip0_7_12)">
<path d="M17.318 0.0770305C18.536 0.133031 19.378 0.312031 20.156 0.614031C20.8937 0.889841 21.5615 1.32482 22.112 1.88803C22.6752 2.43852 23.1102 3.10635 23.386 3.84403C23.688 4.62303 23.867 5.46403 23.923 6.68203C23.992 8.19203 24 8.72403 24 12C24 15.276 23.992 15.808 23.923 17.318C23.867 18.536 23.688 19.378 23.386 20.157C23.1101 20.8944 22.6751 21.5618 22.112 22.112C21.5615 22.6753 20.8937 23.1102 20.156 23.386C19.377 23.688 18.536 23.867 17.318 23.923C15.808 23.992 15.277 24 12 24C8.723 24 8.191 23.992 6.682 23.923C5.464 23.867 4.622 23.688 3.843 23.386C3.10567 23.1101 2.43818 22.6751 1.888 22.112C1.32479 21.5615 0.889811 20.8937 0.614 20.156C0.312 19.377 0.133 18.536 0.077 17.318C0.008 15.81 0 15.278 0 12C0 8.72303 0.008 8.19003 0.077 6.68203C0.133 5.46403 0.312 4.62203 0.614 3.84403C0.889811 3.10635 1.32479 2.43852 1.888 1.88803C2.4382 1.32494 3.10568 0.889971 3.843 0.614031C4.623 0.312031 5.464 0.133031 6.682 0.0770305C8.19 0.00803052 8.722 3.05176e-05 12 3.05176e-05C15.277 3.05176e-05 15.81 0.00803052 17.318 0.0770305ZM12 2.66703C8.76 2.66703 8.264 2.67403 6.803 2.74103C5.876 2.78303 5.32 2.90103 4.809 3.10003C4.374 3.27003 4.097 3.45003 3.773 3.77303C3.449 4.09703 3.269 4.37403 3.1 4.80903C2.902 5.31903 2.783 5.87603 2.741 6.80303C2.674 8.26403 2.667 8.76003 2.667 12C2.667 15.24 2.674 15.736 2.741 17.197C2.783 18.124 2.901 18.68 3.1 19.19C3.27 19.626 3.45 19.903 3.773 20.227C4.097 20.551 4.374 20.731 4.809 20.9C5.319 21.098 5.876 21.217 6.803 21.259C8.265 21.326 8.761 21.333 12 21.333C15.24 21.333 15.735 21.326 17.197 21.259C18.124 21.217 18.68 21.099 19.191 20.9C19.626 20.73 19.903 20.55 20.227 20.227C20.551 19.903 20.731 19.626 20.9 19.191C21.098 18.681 21.217 18.124 21.259 17.197C21.326 15.735 21.333 15.239 21.333 12C21.333 8.76103 21.326 8.26503 21.259 6.80303C21.217 5.87603 21.099 5.32003 20.9 4.81003C20.7586 4.41711 20.5283 4.06221 20.227 3.77303C19.9378 3.47174 19.5829 3.24141 19.19 3.10003C18.68 2.90203 18.123 2.78303 17.196 2.74103C15.735 2.67403 15.239 2.66703 11.999 2.66703H12ZM12 18.222C10.3498 18.222 8.76723 17.5665 7.60038 16.3996C6.43353 15.2328 5.778 13.6502 5.778 12C5.778 10.3499 6.43353 8.76726 7.60038 7.60041C8.76723 6.43356 10.3498 5.77803 12 5.77803C13.6502 5.77803 15.2328 6.43356 16.3996 7.60041C17.5665 8.76726 18.222 10.3499 18.222 12C18.222 13.6502 17.5665 15.2328 16.3996 16.3996C15.2328 17.5665 13.6502 18.222 12 18.222ZM12 15.556C12.9431 15.556 13.8476 15.1814 14.5145 14.5145C15.1814 13.8476 15.556 12.9431 15.556 12C15.556 11.0569 15.1814 10.1524 14.5145 9.48556C13.8476 8.81868 12.9431 8.44403 12 8.44403C11.0569 8.44403 10.1524 8.81868 9.48553 9.48556C8.81865 10.1524 8.444 11.0569 8.444 12C8.444 12.9431 8.81865 13.8476 9.48553 14.5145C10.1524 15.1814 11.0569 15.556 12 15.556ZM18.222 7.11103C17.8683 7.11103 17.5292 6.97054 17.2791 6.72046C17.029 6.47038 16.8885 6.1312 16.8885 5.77753C16.8885 5.42386 17.029 5.08468 17.2791 4.8346C17.5292 4.58452 17.8683 4.44403 18.222 4.44403C18.5757 4.44403 18.9148 4.58452 19.1649 4.8346C19.415 5.08468 19.5555 5.42386 19.5555 5.77753C19.5555 6.1312 19.415 6.47038 19.1649 6.72046C18.9148 6.97054 18.5757 7.11103 18.222 7.11103Z" fill="#212121"/>
</g>
<defs>
<clipPath id="clip0_7_12">
<rect width="24" height="24" fill="white"/>
</clipPath>
</defs>
</svg>
